<svg id="svg" version="1.1" xmlns="http://www.w3.org/2000/svg" xmlns:xlink="http://www.w3.org/1999/xlink" width="400" height="398.75000000000006" viewBox="0, 0, 400,398.75000000000006"><g id="svgg"><path id="path0" d="M140.212 73.906 C 140.210 74.049,140.058 74.167,139.874 74.167 C 139.099 74.167,132.110 77.788,127.083 80.796 C 123.481 82.951,116.544 87.547,116.042 88.112 C 115.984 88.176,115.609 88.459,115.208 88.741 C 114.807 89.022,114.385 89.329,114.271 89.424 C 114.156 89.518,113.500 90.021,112.813 90.543 C 110.942 91.962,110.970 91.990,113.125 90.856 C 118.626 87.962,124.176 86.697,130.354 86.928 C 132.484 87.008,133.413 86.971,133.551 86.802 C 133.846 86.438,134.951 84.911,136.590 82.604 C 137.404 81.458,139.066 79.227,140.285 77.645 C 142.885 74.269,142.726 74.690,141.513 74.384 C 140.970 74.248,140.456 74.026,140.371 73.891 C 140.254 73.708,140.214 73.712,140.212 73.906 M162.169 87.344 C 160.770 88.810,156.844 93.332,155.523 95.000 C 154.843 95.859,154.165 96.687,154.017 96.839 C 153.526 97.343,153.316 97.871,153.618 97.841 C 154.290 97.772,157.411 102.124,159.089 105.470 C 160.668 108.618,162.554 114.616,162.163 115.248 C 162.106 115.341,162.106 115.417,162.164 115.417 C 162.222 115.417,162.715 114.596,163.260 113.594 C 164.807 110.747,167.784 105.806,169.905 102.569 C 170.969 100.945,171.785 99.562,171.718 99.496 C 171.652 99.429,171.696 99.375,171.816 99.375 C 171.937 99.375,172.192 99.117,172.384 98.802 L 172.733 98.229 172.326 98.694 L 171.918 99.160 170.825 97.236 C 168.876 93.805,165.625 89.388,163.674 87.519 C 163.266 87.129,162.982 86.730,163.041 86.634 C 163.275 86.255,162.977 86.497,162.169 87.344 M98.978 102.865 C 92.292 109.573,81.875 122.279,81.875 123.725 C 81.875 123.853,81.781 123.958,81.667 123.958 C 81.552 123.958,81.458 124.091,81.458 124.253 C 81.458 124.416,81.341 124.603,81.198 124.670 C 80.990 124.767,80.990 124.816,81.198 124.913 C 81.341 124.980,81.458 125.339,81.458 125.710 C 81.458 132.228,86.469 143.989,92.118 150.729 C 95.178 154.381,103.125 161.308,103.125 160.324 C 103.125 159.964,104.710 152.799,105.539 149.412 L 106.524 145.387 104.944 143.787 C 93.538 132.231,92.191 113.653,101.816 100.627 C 103.375 98.516,103.075 98.753,98.978 102.865 M171.159 107.760 C 163.354 123.599,158.504 139.002,155.730 156.771 C 155.159 160.426,155.139 160.625,155.368 160.311 C 155.452 160.196,156.427 159.427,157.535 158.601 C 174.059 146.292,180.874 124.941,174.459 105.578 C 174.021 104.255,173.773 103.171,173.853 102.922 C 174.252 101.663,173.485 103.041,171.159 107.760 M148.847 147.146 C 148.176 148.674,140.975 152.068,136.216 153.099 C 131.599 154.100,123.743 154.125,123.135 153.141 C 122.899 152.760,119.141 164.627,118.918 166.457 C 118.856 166.959,118.923 166.989,120.833 167.328 C 127.863 168.574,135.869 168.092,142.813 166.004 C 143.615 165.763,144.380 165.563,144.513 165.561 C 144.646 165.558,144.816 165.126,144.891 164.601 C 145.271 161.929,147.678 151.993,148.996 147.655 C 149.261 146.783,149.159 146.434,148.847 147.146 " stroke="none" fill="#5aaf8e" fill-rule="evenodd"></path><path id="path1" d="M168.290 3.004 C 166.019 3.308,166.174 2.999,166.653 6.263 C 166.878 7.795,167.044 9.065,167.021 9.085 C 166.998 9.105,163.993 9.454,160.342 9.861 C 156.692 10.267,153.660 10.645,153.605 10.700 C 153.550 10.756,153.837 13.269,154.244 16.286 C 154.650 19.303,155.323 24.818,155.739 28.542 C 156.155 32.266,156.527 35.345,156.566 35.384 C 156.605 35.424,157.796 35.307,159.213 35.124 C 160.629 34.941,161.844 34.792,161.912 34.792 C 161.979 34.792,162.078 34.626,162.131 34.423 C 162.215 34.102,169.668 32.905,169.904 33.174 C 169.930 33.205,170.153 34.776,170.400 36.667 C 171.305 43.606,171.439 43.685,180.903 42.815 C 193.093 41.694,193.958 41.332,194.965 36.931 C 195.759 33.460,195.833 33.868,194.332 33.460 C 193.611 33.264,192.365 32.838,191.563 32.514 C 189.891 31.839,189.894 31.837,189.738 33.664 C 189.492 36.533,188.580 36.967,180.983 37.830 C 176.056 38.391,176.055 38.390,175.623 34.716 C 175.326 32.195,174.976 32.443,179.583 31.899 C 181.703 31.649,183.695 31.393,184.010 31.330 C 184.488 31.236,184.583 31.289,184.583 31.650 C 184.583 32.166,184.337 32.155,187.380 31.777 C 190.422 31.400,190.171 31.841,189.609 27.857 C 188.796 22.095,187.969 15.501,187.487 10.938 C 187.233 8.531,186.999 6.531,186.966 6.492 C 186.934 6.453,183.664 6.865,179.699 7.408 C 175.735 7.950,172.452 8.355,172.404 8.307 C 172.263 8.166,171.875 4.789,171.875 3.703 L 171.875 2.708 170.990 2.735 C 170.503 2.749,169.288 2.870,168.290 3.004 M216.999 3.490 C 215.800 11.220,213.061 26.781,211.379 35.417 C 210.989 37.422,210.690 39.086,210.716 39.114 C 210.828 39.238,216.342 40.186,216.431 40.097 C 216.485 40.043,216.914 37.745,217.385 34.991 C 217.855 32.237,218.331 29.964,218.443 29.940 C 218.610 29.904,220.340 32.550,220.706 33.401 C 220.764 33.537,221.907 32.519,223.287 31.101 L 225.762 28.555 225.999 29.826 C 226.295 31.417,226.304 31.425,227.244 30.859 C 228.051 30.373,229.138 29.847,230.456 29.306 L 231.224 28.990 230.163 25.792 L 229.102 22.594 230.020 20.569 C 230.525 19.455,231.007 18.543,231.091 18.542 C 231.431 18.541,233.958 24.154,233.958 24.909 C 233.958 25.989,229.680 31.184,227.626 32.599 L 226.509 33.368 228.476 35.335 L 230.443 37.302 231.003 36.901 C 231.663 36.429,233.860 34.147,235.302 32.435 C 236.501 31.012,236.471 30.990,237.139 33.834 L 237.604 35.819 239.660 34.472 C 241.678 33.150,242.083 32.953,242.083 33.297 C 242.083 33.571,241.247 38.191,241.124 38.594 C 240.857 39.473,240.341 39.474,236.547 38.606 L 236.116 38.507 236.492 40.347 C 236.699 41.359,236.870 42.813,236.871 43.577 L 236.875 44.967 238.267 45.116 C 244.219 45.753,245.533 44.831,246.657 39.229 C 247.865 33.208,252.162 8.968,252.043 8.848 C 251.974 8.780,249.400 8.306,246.323 7.796 C 235.731 6.040,228.041 4.680,221.626 3.428 C 216.975 2.520,217.149 2.518,216.999 3.490 M233.809 11.018 C 240.201 12.147,245.481 13.120,245.543 13.182 C 245.651 13.290,242.619 30.882,242.331 31.819 C 242.221 32.174,241.897 31.460,240.957 28.798 L 239.727 25.313 240.303 23.750 C 241.700 19.958,243.354 15.160,243.287 15.093 C 243.230 15.036,240.197 14.068,238.363 13.522 C 238.132 13.453,236.949 17.177,236.885 18.177 C 236.855 18.639,236.467 18.190,235.938 17.083 C 235.233 15.610,235.459 15.663,233.648 16.543 C 231.077 17.792,231.154 17.864,232.182 15.165 C 232.971 13.095,233.038 12.795,232.737 12.664 C 232.296 12.473,228.541 11.050,228.103 10.908 C 227.847 10.826,227.738 10.989,227.639 11.598 C 227.451 12.759,226.419 16.042,226.241 16.042 C 226.158 16.042,225.781 15.339,225.403 14.479 C 225.025 13.620,224.700 12.917,224.679 12.917 C 224.659 12.917,223.932 13.245,223.064 13.646 C 220.750 14.715,220.817 14.771,221.277 12.135 C 221.781 9.253,221.852 8.957,222.035 8.963 C 222.119 8.965,227.417 9.890,233.809 11.018 M182.177 12.760 C 182.367 13.635,182.677 16.767,182.583 16.861 C 182.493 16.952,173.691 18.104,173.603 18.037 C 173.579 18.019,173.435 16.961,173.281 15.687 L 173.003 13.370 174.991 13.125 C 176.085 12.991,177.870 12.760,178.958 12.611 C 181.913 12.209,182.059 12.216,182.177 12.760 M167.780 14.948 C 167.848 15.378,167.967 16.399,168.043 17.217 L 168.181 18.705 167.580 18.822 C 167.249 18.887,165.714 19.086,164.167 19.266 C 162.620 19.445,161.108 19.632,160.807 19.681 L 160.260 19.771 160.006 17.474 C 159.701 14.713,159.310 15.082,163.036 14.611 C 167.724 14.018,167.630 14.011,167.780 14.948 M222.735 20.501 L 223.406 22.148 222.846 23.210 C 222.159 24.512,220.064 27.070,219.151 27.719 L 218.478 28.199 218.596 27.693 C 218.661 27.415,219.163 24.659,219.712 21.569 L 220.710 15.951 221.387 17.403 C 221.759 18.201,222.366 19.595,222.735 20.501 M120.259 21.361 C 115.004 23.949,112.979 24.857,113.143 24.550 C 113.455 23.967,113.362 23.917,110.607 23.162 C 107.569 22.329,107.721 22.315,106.981 23.490 C 106.638 24.034,105.958 24.970,105.470 25.570 C 104.384 26.906,104.346 26.737,105.833 27.188 C 106.521 27.396,107.083 27.627,107.083 27.702 C 107.083 27.777,103.936 29.329,100.089 31.152 C 96.242 32.974,93.054 34.529,93.006 34.607 C 92.881 34.810,97.303 43.750,97.528 43.750 C 97.688 43.750,102.276 41.519,102.463 41.350 C 102.499 41.317,101.995 40.290,101.342 39.067 C 100.682 37.830,100.236 36.770,100.338 36.675 C 100.565 36.465,124.588 24.792,124.793 24.792 C 124.876 24.792,125.441 25.870,126.051 27.188 C 126.660 28.505,127.190 29.583,127.228 29.583 C 127.502 29.583,132.306 27.035,132.252 26.918 C 131.845 26.045,127.662 17.713,127.637 17.726 C 127.619 17.735,124.299 19.371,120.259 21.361 M183.401 22.448 C 183.468 22.878,183.585 23.934,183.661 24.796 L 183.799 26.362 179.347 26.911 C 176.899 27.213,174.854 27.419,174.802 27.369 C 174.701 27.271,174.142 22.866,174.222 22.800 C 174.284 22.749,182.245 21.724,182.838 21.691 C 183.195 21.671,183.303 21.817,183.401 22.448 M287.188 23.779 C 282.324 27.965,275.180 31.042,270.322 31.042 C 268.716 31.042,268.715 31.045,269.479 33.190 C 269.854 34.243,270.270 35.635,270.404 36.284 L 270.647 37.464 273.338 36.754 C 277.888 35.554,282.537 33.631,286.196 31.435 C 287.622 30.580,292.089 27.692,292.468 27.380 C 292.508 27.347,291.929 26.619,291.181 25.762 C 290.434 24.905,289.568 23.820,289.258 23.352 C 288.948 22.883,288.684 22.505,288.670 22.512 C 288.657 22.518,287.990 23.089,287.188 23.779 M169.132 25.764 C 169.265 26.986,169.326 28.036,169.266 28.096 C 169.146 28.216,161.599 29.161,161.502 29.068 C 161.439 29.009,160.862 24.500,160.910 24.452 C 160.978 24.385,167.479 23.589,168.143 23.567 L 168.889 23.542 169.132 25.764 M296.477 27.448 C 293.701 36.838,294.647 44.224,299.506 51.106 C 300.964 53.172,300.890 53.158,302.836 51.757 C 303.740 51.107,304.965 50.300,305.558 49.964 L 306.636 49.352 305.330 48.046 C 300.429 43.145,298.850 35.064,301.770 29.839 C 302.057 29.326,302.292 28.872,302.292 28.830 C 302.292 28.789,301.524 28.369,300.587 27.897 C 299.649 27.426,298.526 26.815,298.091 26.541 C 296.988 25.845,296.943 25.870,296.477 27.448 M113.648 32.722 C 107.347 35.801,102.164 38.403,102.130 38.505 C 102.075 38.670,103.807 42.418,104.050 42.661 C 104.103 42.714,106.047 41.794,108.370 40.617 L 112.594 38.476 111.737 39.499 C 109.763 41.858,105.700 45.390,102.656 47.395 C 101.212 48.346,101.204 48.148,102.727 49.074 C 103.425 49.498,104.421 50.170,104.942 50.567 C 106.154 51.492,105.905 51.633,110.320 47.532 C 112.337 45.659,114.030 44.169,114.082 44.221 C 114.606 44.745,108.056 52.165,105.102 54.395 C 103.717 55.441,103.712 55.489,104.916 56.203 C 105.443 56.515,106.404 57.165,107.051 57.646 L 108.229 58.521 109.654 57.125 C 111.585 55.233,114.785 51.407,116.657 48.750 C 118.582 46.019,118.493 46.118,118.767 46.392 C 119.697 47.322,112.898 56.369,108.313 60.301 C 107.121 61.324,105.972 62.320,105.759 62.514 C 105.388 62.854,105.421 62.895,106.592 63.519 C 107.263 63.877,108.307 64.544,108.910 65.002 C 109.514 65.459,110.080 65.833,110.167 65.833 C 110.838 65.833,118.083 57.179,120.746 53.196 L 122.083 51.196 122.531 52.209 C 123.590 54.603,123.148 55.633,120.674 56.529 C 119.088 57.103,119.075 57.045,121.292 59.336 L 123.169 61.276 124.534 60.690 C 130.236 58.243,130.350 53.227,124.878 45.492 C 124.590 45.083,124.603 45.001,125.042 44.502 L 125.521 43.957 127.188 45.445 C 130.879 48.743,134.047 50.313,138.898 51.249 C 141.874 51.823,142.500 51.809,142.500 51.169 C 142.500 50.764,142.946 48.462,143.473 46.146 C 143.563 45.751,143.452 45.727,141.315 45.693 C 136.805 45.620,133.048 44.063,129.520 40.804 L 128.312 39.688 129.891 36.995 C 131.507 34.240,131.563 33.970,130.521 33.961 C 130.128 33.957,126.731 33.096,126.030 32.821 C 125.777 32.723,125.421 33.326,124.412 35.566 C 123.700 37.145,122.694 39.165,122.176 40.053 L 121.234 41.669 120.636 41.360 C 120.307 41.190,119.422 40.882,118.669 40.676 L 117.300 40.301 118.650 38.343 C 120.247 36.028,120.223 36.149,119.143 35.915 L 118.286 35.729 122.789 33.647 C 125.265 32.502,127.292 31.494,127.292 31.409 C 127.292 31.121,125.358 27.083,125.230 27.104 C 125.161 27.115,119.949 29.643,113.648 32.722 M284.896 38.563 C 280.408 42.472,272.966 46.149,268.701 46.564 C 266.288 46.799,266.473 46.611,266.486 48.817 C 266.493 49.882,266.433 51.278,266.353 51.918 L 266.207 53.083 266.906 53.230 C 269.165 53.707,274.501 55.622,283.261 59.102 C 290.208 61.862,289.583 61.327,289.583 64.519 C 289.583 66.099,289.620 66.266,289.948 66.164 C 290.894 65.867,295.035 65.000,295.503 65.000 C 295.965 65.000,296.019 64.928,295.931 64.427 C 295.875 64.112,295.511 61.885,295.121 59.479 C 294.732 57.073,294.157 53.757,293.845 52.111 L 293.278 49.118 292.339 49.246 C 291.823 49.317,290.558 49.375,289.528 49.375 L 287.656 49.375 287.777 49.948 C 288.489 53.339,288.743 54.626,288.861 55.453 L 289.001 56.427 281.897 53.282 C 277.990 51.553,274.833 50.097,274.883 50.048 C 274.932 49.998,276.105 49.503,277.488 48.947 C 280.205 47.854,285.879 45.160,288.689 43.628 L 290.434 42.677 289.689 41.703 C 289.280 41.167,288.457 39.909,287.860 38.906 C 287.263 37.904,286.727 37.090,286.669 37.097 C 286.610 37.105,285.813 37.765,284.896 38.563 M190.104 46.266 C 77.812 54.098,9.424 172.436,59.366 272.493 C 107.284 368.492,235.728 389.287,311.674 313.341 C 391.492 233.523,363.301 98.787,258.021 56.911 C 237.337 48.685,212.114 44.731,190.104 46.266 M59.874 59.427 C 54.857 64.612,49.124 70.504,47.134 72.520 L 43.516 76.186 56.914 89.074 C 64.283 96.163,70.435 102.130,70.585 102.335 C 70.734 102.540,70.934 102.708,71.029 102.708 C 71.396 102.708,74.688 99.116,74.688 98.714 C 74.688 97.966,92.322 79.989,92.718 80.333 C 92.998 80.576,93.302 80.351,95.007 78.639 L 96.973 76.665 95.726 75.439 C 95.040 74.764,89.229 69.217,82.813 63.111 C 76.396 57.004,70.739 51.556,70.241 51.004 C 69.744 50.452,69.260 50.000,69.166 50.000 C 69.073 50.000,64.892 54.242,59.874 59.427 M208.958 52.921 C 300.405 58.516,365.972 143.104,347.996 232.292 C 333.040 306.495,263.973 358.459,188.377 352.385 C 118.935 346.806,61.989 294.116,51.375 225.625 C 37.804 138.044,103.214 57.965,192.500 52.851 C 195.373 52.686,205.856 52.731,208.958 52.921 M332.758 55.124 L 330.829 56.913 341.177 67.416 C 346.869 73.193,351.645 78.091,351.791 78.299 C 352.042 78.657,335.006 95.473,332.563 97.278 C 331.734 97.891,331.475 97.753,329.442 95.616 C 327.790 93.880,327.897 93.897,327.324 95.280 C 327.070 95.892,326.391 97.111,325.815 97.988 C 325.239 98.866,324.824 99.676,324.894 99.789 C 325.515 100.793,330.243 103.809,331.633 104.087 C 333.057 104.372,332.147 105.154,347.911 90.104 C 351.872 86.323,356.133 82.273,357.380 81.104 L 359.648 78.978 352.162 71.312 C 343.875 62.825,340.845 59.678,337.310 55.885 C 336.002 54.481,334.877 53.334,334.810 53.334 C 334.742 53.334,333.819 54.140,332.758 55.124 M79.040 66.962 C 84.501 72.223,88.944 76.594,88.912 76.675 C 88.843 76.851,71.210 95.000,71.108 95.000 C 71.050 95.000,55.473 80.049,52.013 76.672 L 51.006 75.688 59.930 66.497 C 64.838 61.442,68.912 57.326,68.982 57.351 C 69.052 57.376,73.579 61.700,79.040 66.962 M325.673 60.343 L 323.742 62.134 328.590 66.955 C 331.256 69.606,335.734 74.212,338.542 77.190 C 341.349 80.168,343.699 82.604,343.764 82.604 C 343.829 82.604,344.718 81.835,345.739 80.895 L 347.594 79.186 341.971 73.499 C 338.878 70.372,334.843 66.219,333.005 64.271 C 331.166 62.323,329.199 60.239,328.633 59.640 L 327.604 58.552 325.673 60.343 M67.065 62.135 C 65.649 63.654,61.912 67.501,58.759 70.685 L 53.028 76.474 54.795 78.123 C 55.767 79.030,56.609 79.776,56.667 79.782 C 56.724 79.787,58.170 78.287,59.880 76.448 L 62.989 73.104 64.417 74.521 L 65.845 75.938 63.026 78.735 C 61.476 80.273,60.208 81.599,60.208 81.682 C 60.208 81.764,60.973 82.551,61.907 83.430 L 63.606 85.028 66.438 82.080 L 69.271 79.132 71.128 81.011 L 72.984 82.889 71.715 84.309 C 71.018 85.090,69.519 86.648,68.385 87.772 L 66.324 89.814 68.062 91.510 C 69.547 92.960,69.839 93.163,70.074 92.905 C 73.128 89.550,77.416 85.060,81.722 80.708 L 87.102 75.270 85.385 73.654 L 83.668 72.039 82.563 73.189 L 81.458 74.338 81.458 73.003 L 81.458 71.667 79.018 71.667 L 76.577 71.667 77.657 70.572 L 78.738 69.478 76.989 67.864 C 74.901 65.937,75.286 65.975,73.817 67.551 C 73.150 68.266,71.927 69.555,71.100 70.415 L 69.595 71.979 68.232 70.620 L 66.869 69.261 70.153 65.961 L 73.438 62.660 71.689 61.018 C 69.550 59.007,70.109 58.872,67.065 62.135 M195.208 60.807 C 193.432 60.879,191.839 61.025,191.667 61.131 C 191.078 61.497,185.730 65.589,185.250 66.042 C 184.692 66.569,184.640 66.471,186.620 68.608 C 188.112 70.218,191.232 74.085,191.407 74.541 C 191.488 74.752,191.989 74.349,193.072 73.203 C 193.924 72.301,194.402 71.850,194.134 72.202 C 193.865 72.554,193.411 73.155,193.125 73.538 C 192.839 73.920,192.503 74.336,192.379 74.462 C 191.959 74.890,192.211 75.519,193.682 77.710 C 219.672 116.449,204.932 169.777,162.642 190.006 C 159.951 191.293,154.377 193.542,153.877 193.542 C 152.823 193.542,154.312 211.609,156.365 223.714 C 157.664 231.375,161.515 247.626,162.192 248.303 C 162.992 249.103,187.153 249.869,196.667 249.395 C 245.343 246.969,289.230 229.435,324.167 198.455 C 329.770 193.486,341.458 181.361,341.458 180.517 C 341.458 180.362,341.221 178.941,340.930 177.358 C 328.178 107.898,265.736 57.955,195.208 60.807 M319.896 70.850 C 317.490 73.147,314.964 75.578,314.282 76.253 L 313.044 77.481 319.178 83.693 C 322.552 87.110,325.968 90.677,326.769 91.619 C 328.528 93.690,328.344 93.679,330.146 91.823 C 332.367 89.535,336.798 85.250,338.436 83.808 L 339.893 82.525 335.307 77.877 C 332.784 75.321,329.324 71.753,327.617 69.948 C 325.911 68.143,324.460 66.669,324.393 66.671 C 324.326 66.673,322.302 68.554,319.896 70.850 M74.681 74.889 L 74.536 76.237 77.066 76.295 L 79.597 76.354 78.288 77.639 L 76.979 78.923 75.002 77.074 L 73.024 75.225 73.846 74.383 C 74.886 73.318,74.851 73.297,74.681 74.889 M328.545 78.191 L 332.369 82.111 330.418 83.920 C 329.344 84.915,328.409 85.729,328.338 85.729 C 328.268 85.729,326.509 83.989,324.430 81.861 L 320.649 77.994 322.563 76.080 C 323.616 75.027,324.532 74.190,324.599 74.218 C 324.665 74.247,326.441 76.035,328.545 78.191 M363.986 99.513 C 362.982 100.078,362.712 100.329,362.819 100.593 C 363.533 102.360,363.432 102.530,356.023 112.083 C 352.869 116.151,350.221 119.591,350.139 119.728 C 349.814 120.271,352.332 124.792,352.960 124.792 C 353.275 124.792,357.448 124.316,362.235 123.735 C 372.401 122.501,373.973 122.545,374.854 124.084 C 375.111 124.533,375.518 124.438,376.773 123.636 L 377.928 122.896 376.805 120.771 C 373.641 114.784,373.149 113.796,373.270 113.674 C 373.583 113.362,373.069 113.593,371.890 114.295 C 371.194 114.710,370.626 115.061,370.627 115.076 C 370.628 115.092,370.766 115.553,370.932 116.101 C 371.471 117.878,370.999 118.360,368.075 119.017 L 366.671 119.333 364.988 116.006 L 363.306 112.679 363.878 111.913 C 366.300 108.668,367.009 108.446,368.113 110.585 L 368.361 111.065 369.337 110.506 C 371.089 109.502,371.165 109.960,368.327 104.446 C 365.016 98.016,365.555 98.628,363.986 99.513 M362.303 117.730 C 362.884 118.888,363.330 119.857,363.294 119.884 C 363.212 119.946,356.781 120.808,356.742 120.763 C 356.699 120.712,361.085 115.625,361.172 115.625 C 361.213 115.625,361.722 116.572,362.303 117.730 M26.842 116.225 C 27.067 116.368,27.034 116.571,26.669 117.287 L 26.217 118.172 26.743 118.722 L 27.268 119.271 26.234 120.142 C 19.648 125.689,20.614 135.958,27.896 137.824 C 30.719 138.547,32.391 137.448,36.806 131.971 C 40.173 127.792,42.016 126.981,42.729 129.361 C 43.627 132.359,40.171 136.211,35.932 136.937 L 34.597 137.166 34.472 138.114 C 34.404 138.636,34.330 139.245,34.309 139.468 C 34.276 139.821,39.473 141.166,41.162 141.240 C 41.725 141.265,42.361 139.258,41.977 138.671 C 41.622 138.130,41.626 138.113,42.214 137.665 C 48.925 132.550,47.115 121.336,39.583 121.372 C 37.162 121.384,36.378 121.885,33.504 125.257 C 28.104 131.596,26.585 132.474,25.503 129.886 C 23.822 125.861,28.793 120.647,34.329 120.628 C 35.365 120.625,35.399 120.568,35.469 118.761 L 35.521 117.419 31.563 116.743 C 27.409 116.034,26.359 115.919,26.842 116.225 M371.458 131.171 C 361.672 135.378,360.903 135.522,360.161 133.294 C 360.097 133.102,359.697 133.191,358.671 133.627 C 357.580 134.091,357.298 134.298,357.401 134.560 C 357.474 134.745,358.183 136.623,358.977 138.735 C 360.696 143.305,360.348 142.881,361.881 142.272 L 363.142 141.771 363.012 140.728 C 362.792 138.972,363.256 138.601,368.502 136.338 C 369.943 135.717,371.147 135.208,371.176 135.208 C 371.205 135.208,369.265 138.021,366.865 141.458 C 364.464 144.896,362.500 147.824,362.500 147.966 C 362.500 148.282,365.838 157.330,366.039 157.561 C 366.119 157.651,366.763 157.474,367.470 157.167 L 368.757 156.609 368.623 155.600 C 368.380 153.767,368.697 153.551,376.476 150.245 C 382.898 147.516,383.308 147.445,384.193 148.917 C 384.447 149.341,384.675 149.715,384.698 149.748 C 384.802 149.899,387.500 148.652,387.499 148.453 C 387.498 148.010,384.410 140.116,384.212 140.050 C 384.101 140.013,383.486 140.214,382.846 140.497 L 381.683 141.012 381.809 142.075 C 382.025 143.904,381.103 144.453,370.066 149.065 L 369.352 149.363 370.687 147.442 C 371.421 146.385,374.106 142.526,376.654 138.865 C 380.461 133.395,381.267 132.115,381.178 131.678 C 381.011 130.854,379.772 127.707,379.617 127.715 C 379.541 127.719,375.870 129.274,371.458 131.171 M32.365 142.031 C 32.024 142.461,31.683 142.916,31.607 143.043 C 31.532 143.170,31.982 143.917,32.608 144.702 C 34.159 146.649,35.034 150.452,34.136 151.350 C 34.018 151.468,21.064 147.213,20.236 146.785 C 19.194 146.246,18.711 145.452,18.787 144.401 L 18.854 143.478 17.457 143.006 C 16.183 142.575,16.050 142.564,15.955 142.881 C 15.408 144.703,12.708 154.146,12.708 154.238 C 12.708 154.362,15.444 155.257,15.526 155.159 C 15.551 155.129,15.727 154.800,15.915 154.429 C 16.806 152.677,16.739 152.669,25.869 155.640 L 32.283 157.727 31.876 158.797 C 31.147 160.717,29.223 162.224,26.853 162.733 L 25.780 162.963 25.888 164.305 C 26.020 165.952,25.491 165.790,29.889 165.532 L 33.632 165.313 36.288 156.042 C 37.750 150.943,38.972 146.571,39.004 146.328 C 39.057 145.926,33.652 141.250,33.134 141.250 C 33.053 141.250,32.707 141.602,32.365 142.031 M388.021 156.359 C 387.906 156.401,387.431 156.534,386.964 156.654 L 386.115 156.871 386.131 157.898 C 386.159 159.837,385.689 160.063,376.951 162.299 C 370.840 163.863,370.563 163.861,369.856 162.258 C 369.448 161.334,369.535 161.354,367.914 161.805 C 366.410 162.223,366.410 161.563,367.915 167.941 C 368.601 170.849,369.211 173.433,369.269 173.683 L 369.376 174.137 370.781 173.735 C 371.554 173.514,372.211 173.333,372.241 173.333 C 372.272 173.333,372.237 172.960,372.164 172.503 C 371.870 170.666,372.697 170.225,380.104 168.266 C 387.510 166.307,387.824 166.294,388.505 167.915 C 388.900 168.856,389.028 168.884,390.648 168.383 L 391.816 168.021 390.439 162.137 C 388.992 155.950,389.011 155.996,388.021 156.359 M10.942 160.871 C 10.516 162.654,9.012 170.543,9.077 170.649 C 9.121 170.720,9.558 170.842,10.047 170.920 C 10.537 170.998,11.139 171.112,11.386 171.173 C 11.755 171.265,11.859 171.170,11.976 170.637 C 12.147 169.863,13.034 168.750,13.482 168.750 C 14.118 168.750,17.306 170.875,17.201 171.229 C 17.147 171.412,16.817 173.055,16.468 174.878 C 15.724 178.769,16.008 178.309,14.128 178.667 C 11.143 179.236,10.452 178.897,10.737 177.003 C 10.873 176.092,10.858 176.056,10.283 175.926 C 9.955 175.852,9.326 175.701,8.885 175.590 C 7.890 175.341,8.155 174.602,6.897 181.146 C 6.303 184.240,5.769 186.927,5.712 187.119 C 5.628 187.399,5.842 187.513,6.814 187.706 C 7.478 187.838,8.161 187.982,8.333 188.027 C 8.534 188.080,8.783 187.813,9.030 187.278 C 9.656 185.926,10.150 185.781,19.617 184.164 C 24.354 183.356,28.709 182.599,29.296 182.484 L 30.362 182.274 30.821 179.939 C 31.074 178.655,31.327 177.408,31.384 177.169 C 31.471 176.798,30.350 175.893,23.921 171.146 C 14.596 164.260,13.958 163.651,13.958 161.634 C 13.958 160.745,11.142 160.032,10.942 160.871 M63.182 163.177 C 63.061 163.664,62.623 165.328,62.210 166.875 C 57.399 184.867,56.298 204.771,59.075 223.542 C 59.354 225.432,59.583 227.038,59.583 227.110 C 59.583 227.244,64.737 231.984,67.396 234.295 C 75.720 241.533,87.677 249.807,98.646 255.918 C 101.608 257.569,110.100 261.875,110.393 261.875 C 110.505 261.875,110.272 260.914,109.874 259.740 C 107.856 253.786,105.842 246.571,104.394 240.113 L 103.415 235.746 101.551 234.625 C 95.505 230.987,85.093 223.582,78.958 218.555 C 76.234 216.323,68.958 210.018,68.958 209.889 C 68.958 209.848,70.294 210.826,71.927 212.061 C 80.193 218.316,89.459 224.260,98.229 228.933 C 102.756 231.344,102.597 231.294,102.422 230.260 C 100.646 219.787,99.741 209.132,99.708 198.303 C 99.697 194.562,99.633 191.589,99.566 191.696 C 99.408 191.949,95.012 189.958,91.602 188.089 C 81.362 182.478,72.397 174.498,65.602 164.948 C 63.473 161.955,63.485 161.964,63.182 163.177 M390.781 172.237 L 389.583 172.312 389.583 173.021 C 389.583 174.949,388.873 175.272,383.384 175.842 C 374.255 176.790,373.222 176.688,372.757 174.792 C 372.658 174.391,372.466 174.072,372.331 174.083 C 372.195 174.095,371.638 174.120,371.094 174.139 C 369.486 174.195,369.544 173.821,370.109 180.423 C 370.388 183.685,370.618 186.378,370.621 186.406 C 370.629 186.513,372.621 186.448,373.073 186.327 C 373.418 186.234,373.542 186.047,373.542 185.614 C 373.542 184.609,373.916 183.955,374.672 183.639 C 375.404 183.333,379.299 182.771,379.474 182.947 C 379.629 183.101,380.288 191.448,380.156 191.580 C 380.091 191.645,378.974 191.744,377.675 191.800 C 374.801 191.922,374.397 191.767,373.980 190.384 L 373.690 189.420 372.418 189.528 C 371.718 189.587,371.079 189.694,370.998 189.767 C 370.917 189.840,371.079 192.570,371.359 195.835 C 371.638 199.100,371.868 201.794,371.871 201.823 C 371.879 201.925,373.502 201.873,374.116 201.750 C 374.661 201.641,374.757 201.516,374.854 200.792 C 375.105 198.919,375.573 198.769,383.498 198.009 C 390.686 197.321,391.344 197.432,391.779 199.411 L 391.920 200.053 393.297 199.912 C 394.054 199.834,394.703 199.741,394.739 199.705 C 394.830 199.615,393.814 187.703,393.706 187.595 C 393.659 187.547,393.003 187.566,392.250 187.636 L 390.881 187.764 390.774 188.719 C 390.584 190.397,389.619 190.818,385.167 191.164 C 383.376 191.304,383.354 191.300,383.253 190.809 C 383.132 190.226,382.493 182.643,382.559 182.587 C 382.584 182.566,383.826 182.442,385.320 182.312 C 389.221 181.972,389.974 182.192,390.459 183.809 L 390.706 184.634 392.031 184.527 C 392.760 184.469,393.414 184.363,393.485 184.293 C 393.798 183.980,392.647 172.082,392.308 172.123 C 392.127 172.144,391.440 172.196,390.781 172.237 M23.153 175.151 L 25.785 177.017 22.555 177.372 C 20.778 177.567,19.291 177.693,19.250 177.653 C 19.041 177.444,20.068 172.922,20.286 173.097 C 20.415 173.201,21.705 174.126,23.153 175.151 M22.276 189.101 L 21.795 190.286 22.408 190.713 C 24.896 192.447,26.250 194.600,26.250 196.821 L 26.250 197.734 24.844 197.614 C 24.070 197.548,21.000 197.353,18.021 197.179 C 10.271 196.729,9.851 196.605,9.636 194.696 L 9.529 193.750 7.994 193.750 L 6.458 193.750 6.458 194.583 C 6.458 195.368,6.120 202.561,5.971 204.948 L 5.903 206.042 7.382 206.042 L 8.861 206.042 9.223 205.022 C 9.812 203.364,10.356 203.290,18.400 203.772 C 21.858 203.980,24.945 204.154,25.260 204.158 C 27.196 204.187,24.873 208.686,22.124 210.234 C 21.471 210.601,20.907 210.925,20.869 210.953 C 20.759 211.036,21.501 213.542,21.636 213.542 C 21.703 213.542,23.359 213.011,25.315 212.362 L 28.873 211.183 29.340 201.477 C 29.597 196.139,29.804 191.575,29.799 191.335 C 29.793 190.976,29.210 190.639,26.461 189.408 C 22.475 187.624,22.864 187.652,22.276 189.101 M113.574 197.006 C 112.927 199.543,112.514 214.897,112.894 222.292 C 113.111 226.500,113.910 236.268,114.050 236.411 C 115.300 237.682,143.800 246.269,144.488 245.582 C 144.529 245.541,144.293 243.870,143.963 241.868 C 141.986 229.867,141.170 219.376,141.156 205.799 C 141.149 199.628,141.076 196.548,140.938 196.656 C 139.136 198.060,123.342 197.868,114.546 196.334 C 113.795 196.203,113.775 196.217,113.574 197.006 M387.222 204.714 L 386.435 206.304 387.629 207.367 C 393.838 212.902,391.382 219.896,383.229 219.896 C 372.969 219.896,369.953 211.278,378.764 207.136 C 380.617 206.265,380.588 206.336,379.945 204.228 L 379.688 203.382 375.466 204.576 C 370.574 205.959,371.126 205.658,370.940 207.041 C 370.793 208.131,370.800 208.149,371.421 208.383 L 372.050 208.621 371.544 209.619 C 366.963 218.660,375.495 228.983,385.619 226.650 C 392.899 224.973,396.878 215.325,393.191 208.292 C 392.290 206.572,388.880 203.125,388.081 203.125 C 388.041 203.125,387.654 203.840,387.222 204.714 M338.543 214.941 C 327.641 225.946,306.507 238.444,284.375 246.972 C 248.870 260.654,207.131 264.956,168.373 258.928 C 166.848 258.691,165.568 258.530,165.529 258.571 C 165.127 258.989,174.914 281.458,175.498 281.458 C 175.559 281.458,177.042 281.642,178.794 281.866 C 197.793 284.295,220.076 284.410,239.063 282.176 C 270.489 278.480,298.486 268.105,324.826 250.394 C 327.430 248.643,327.118 248.981,323.698 251.616 C 284.568 281.771,241.056 295.415,187.837 294.219 C 185.016 294.156,182.708 294.178,182.708 294.269 C 182.708 294.690,187.332 301.736,190.699 306.447 C 199.604 318.909,209.915 330.172,221.771 340.387 C 225.134 343.286,224.630 343.147,228.770 342.309 C 290.039 329.893,336.787 278.329,342.582 216.771 C 343.106 211.200,343.143 210.625,342.975 210.628 C 342.885 210.629,340.891 212.570,338.543 214.941 M27.135 212.646 C 26.517 212.727,26.458 212.798,26.458 213.464 C 26.458 215.440,26.170 215.558,18.855 216.571 C 11.169 217.635,10.515 217.587,9.876 215.913 L 9.506 214.947 8.161 215.073 C 7.421 215.142,6.792 215.224,6.763 215.255 C 6.628 215.403,9.110 236.276,9.282 236.440 C 9.607 236.750,17.374 239.169,17.519 239.005 C 17.658 238.849,18.333 236.906,18.333 236.664 C 18.333 236.589,17.595 236.047,16.693 235.459 C 12.452 232.697,9.486 226.381,11.668 224.758 C 12.085 224.448,17.159 223.555,18.575 223.543 C 18.651 223.542,18.776 223.915,18.853 224.371 C 19.133 226.025,18.228 227.328,16.335 227.994 L 15.521 228.280 15.585 229.604 C 15.621 230.332,15.685 230.963,15.728 231.006 C 15.772 231.049,18.053 230.794,20.798 230.438 C 23.543 230.083,25.900 229.792,26.036 229.792 C 26.193 229.792,26.243 229.583,26.174 229.219 C 26.113 228.904,26.008 228.271,25.939 227.813 L 25.814 226.979 24.658 226.938 C 23.125 226.884,22.591 226.501,22.196 225.171 C 21.563 223.042,21.542 223.064,24.479 222.746 C 27.384 222.431,27.988 223.016,27.963 226.121 C 27.939 228.975,26.813 231.619,24.599 234.022 L 23.770 234.920 24.384 235.846 C 24.722 236.354,25.029 236.862,25.066 236.973 C 25.114 237.114,31.508 233.186,31.794 232.840 C 31.806 232.825,31.288 228.266,30.643 222.708 L 29.469 212.604 28.641 212.581 C 28.185 212.568,27.508 212.597,27.135 212.646 M114.792 242.003 C 114.792 243.615,117.507 256.708,118.956 262.083 C 119.281 263.286,119.653 264.675,119.784 265.169 C 120.061 266.210,119.840 266.091,125.722 268.369 C 133.810 271.502,150.359 276.667,152.308 276.667 C 152.611 276.667,152.533 276.270,151.742 273.802 C 150.229 269.086,148.591 263.289,147.457 258.646 C 146.213 253.548,146.466 253.944,143.994 253.243 C 136.137 251.014,126.061 247.166,117.834 243.252 C 114.773 241.796,114.792 241.804,114.792 242.003 M368.960 246.601 C 367.071 246.883,365.496 247.143,365.460 247.179 C 365.275 247.364,359.797 265.755,359.870 265.946 C 360.007 266.304,362.558 267.013,362.656 266.721 C 363.430 264.398,363.898 264.426,372.083 267.282 C 378.801 269.626,379.196 269.891,378.883 271.844 L 378.758 272.626 380.149 273.078 C 380.913 273.327,381.580 273.490,381.629 273.440 C 381.867 273.202,385.181 261.975,385.048 261.857 C 384.964 261.782,384.318 261.530,383.611 261.297 L 382.326 260.872 382.084 261.457 C 381.373 263.174,380.611 263.234,376.627 261.893 C 374.306 261.112,374.272 261.091,374.337 260.498 C 374.502 258.977,375.591 258.216,377.529 258.264 L 378.931 258.300 379.257 257.342 C 379.809 255.722,380.042 255.888,374.563 253.995 C 371.803 253.041,369.488 252.318,369.418 252.388 C 369.348 252.457,369.132 253.030,368.937 253.660 L 368.583 254.805 369.589 255.316 C 370.804 255.931,371.250 256.517,371.249 257.494 C 371.248 258.159,370.898 259.792,370.756 259.792 C 370.502 259.792,367.624 258.716,366.926 258.360 C 363.812 256.771,367.788 250.505,372.931 248.894 C 373.323 248.772,373.022 246.024,372.622 246.065 C 372.498 246.078,370.850 246.319,368.960 246.601 M31.146 258.453 C 30.917 258.504,30.214 258.649,29.583 258.775 C 25.266 259.637,21.182 263.071,19.578 267.188 C 17.937 271.402,20.416 279.043,24.059 280.995 C 24.457 281.208,24.448 281.246,23.808 282.042 L 23.144 282.868 23.829 284.495 C 24.689 286.540,24.383 286.515,28.039 284.832 C 32.375 282.837,32.837 282.800,33.950 284.363 L 34.390 284.981 35.685 284.432 C 36.397 284.130,37.007 283.864,37.041 283.841 C 37.105 283.798,32.955 273.094,32.824 272.963 C 32.464 272.603,30.217 274.229,30.362 274.744 C 31.514 278.861,26.204 279.556,24.204 275.550 C 21.942 271.022,25.305 266.599,32.396 264.776 C 39.418 262.970,42.480 269.855,37.654 276.603 L 37.030 277.476 37.659 278.269 C 39.088 280.072,38.746 280.231,44.774 274.950 L 45.486 274.326 45.105 273.205 C 44.771 272.221,44.655 272.083,44.164 272.083 C 43.608 272.083,43.602 272.070,43.480 270.260 C 43.023 263.482,36.523 257.259,31.146 258.453 M70.833 262.583 C 70.833 262.847,72.698 266.647,74.180 269.403 C 91.653 301.903,120.575 326.281,155.364 337.835 C 157.570 338.567,159.526 339.167,159.711 339.167 C 159.897 339.167,158.258 337.335,156.061 335.087 C 141.996 320.690,130.890 305.274,121.246 286.764 L 119.723 283.841 114.497 282.128 C 99.905 277.342,86.443 271.368,73.704 264.027 C 71.165 262.564,70.833 262.397,70.833 262.583 M361.042 270.185 C 352.272 273.020,348.840 285.339,354.899 292.234 C 362.134 300.467,373.793 296.670,376.138 285.317 C 378.043 276.095,369.439 267.470,361.042 270.185 M362.500 275.712 C 369.292 277.155,374.140 283.206,372.004 287.573 C 369.760 292.159,364.090 291.532,358.288 286.057 C 353.333 281.381,356.187 274.370,362.500 275.712 M45.506 279.181 C 45.056 279.541,44.516 279.957,44.307 280.105 C 43.952 280.356,43.948 280.418,44.255 281.010 C 45.167 282.776,44.823 283.192,38.559 287.891 C 32.144 292.703,31.967 292.786,30.733 291.553 L 29.994 290.814 28.747 291.773 C 28.061 292.301,27.500 292.790,27.500 292.860 C 27.500 293.099,33.854 302.688,34.019 302.698 C 34.172 302.708,36.458 301.058,36.458 300.938 C 36.458 300.908,36.318 300.548,36.146 300.136 C 35.527 298.655,36.028 297.856,38.986 295.604 L 40.580 294.391 41.114 295.197 L 41.647 296.003 39.604 302.125 L 37.561 308.247 39.481 311.220 C 40.537 312.855,41.502 314.293,41.624 314.416 C 41.831 314.622,42.044 314.501,44.141 312.990 C 44.184 312.959,44.066 312.553,43.880 312.088 C 43.341 310.739,43.466 309.736,44.723 305.367 L 45.906 301.255 46.547 301.684 C 51.761 305.175,57.706 300.963,56.138 294.888 C 55.599 292.800,54.748 291.256,50.712 285.042 C 45.990 277.770,46.523 278.370,45.506 279.181 M127.269 286.288 C 133.274 301.834,146.296 322.716,159.090 337.316 L 161.029 339.528 163.379 340.174 C 171.064 342.285,181.217 344.016,189.167 344.571 C 190.943 344.694,192.888 344.835,193.490 344.883 C 194.929 344.997,194.974 345.066,191.749 342.188 C 180.775 332.391,169.160 315.112,159.965 294.904 C 158.565 291.827,158.699 291.968,157.006 291.787 C 151.204 291.167,132.123 287.379,127.448 285.919 C 127.140 285.823,127.112 285.881,127.269 286.288 M50.793 290.697 C 53.078 294.398,50.164 298.454,46.814 296.235 C 46.034 295.719,43.542 292.822,43.542 292.432 C 43.542 292.260,47.272 289.548,48.065 289.144 C 49.080 288.627,49.751 289.008,50.793 290.697 M59.912 302.210 L 58.886 303.154 59.249 303.768 C 60.204 305.385,59.864 305.879,54.410 310.789 C 47.759 316.778,47.696 316.813,46.097 315.358 L 45.632 314.934 44.602 315.853 C 44.032 316.360,43.599 316.918,43.632 317.100 C 43.738 317.677,50.715 326.417,50.959 326.277 C 51.086 326.205,51.628 325.756,52.165 325.279 L 53.141 324.412 52.717 323.716 C 51.735 322.105,52.080 321.608,57.635 316.633 C 63.799 311.113,64.248 310.852,65.613 312.001 L 66.258 312.544 67.401 311.568 C 68.162 310.917,68.491 310.500,68.386 310.319 C 67.930 309.526,61.323 301.266,61.146 301.266 C 61.031 301.266,60.476 301.691,59.912 302.210 M333.886 308.379 L 331.043 311.758 332.024 312.754 C 333.154 313.901,333.295 313.936,333.958 313.229 C 334.617 312.528,335.514 312.557,336.512 313.313 C 337.611 314.145,342.124 318.542,341.879 318.542 C 341.768 318.542,338.513 317.890,334.646 317.093 L 327.614 315.644 327.062 316.312 C 326.759 316.679,325.281 318.432,323.780 320.208 C 320.579 323.993,320.766 323.464,322.200 324.689 L 323.359 325.679 323.957 325.105 C 325.229 323.887,325.822 324.268,331.805 330.147 C 336.946 335.198,337.078 335.389,336.433 336.889 L 335.979 337.943 336.998 338.977 C 338.297 340.296,338.037 340.439,341.226 336.643 C 344.391 332.874,344.244 333.267,342.917 332.124 L 341.876 331.228 341.179 331.760 C 340.344 332.397,339.905 332.422,339.025 331.886 C 338.495 331.563,329.583 323.188,329.583 323.013 C 329.583 322.987,333.915 323.845,339.210 324.920 C 350.719 327.257,349.224 327.224,350.937 325.179 L 352.357 323.482 351.020 322.210 C 337.669 309.503,337.571 309.384,338.837 307.452 C 339.140 306.989,337.505 305.000,336.821 305.000 C 336.771 305.000,335.450 306.521,333.886 308.379 M68.277 313.017 L 67.282 314.134 67.808 314.909 C 68.803 316.375,68.499 316.946,64.154 321.771 C 58.039 328.561,57.717 328.808,56.257 327.842 L 55.441 327.302 54.391 328.480 L 53.341 329.658 54.524 330.923 C 64.253 341.324,66.798 343.259,71.062 343.492 C 77.942 343.867,84.103 336.267,82.718 329.111 C 82.040 325.603,80.350 323.195,73.842 316.458 C 68.752 311.191,69.494 311.649,68.277 313.017 M75.376 322.565 C 78.573 325.648,78.625 329.821,75.517 333.929 C 71.711 338.957,66.063 339.474,63.140 335.062 C 62.133 333.542,62.033 333.707,67.897 327.193 C 73.485 320.986,73.640 320.890,75.376 322.565 M316.656 327.934 C 308.232 329.142,302.758 339.160,306.365 346.771 C 311.075 356.710,322.814 357.099,328.391 347.500 C 333.612 338.513,326.428 326.533,316.656 327.934 M317.813 333.113 C 322.457 335.332,326.408 343.145,324.718 346.772 C 322.052 352.499,314.248 349.355,310.896 341.203 C 308.595 335.607,312.782 330.710,317.813 333.113 M294.271 343.567 C 288.976 347.173,289.341 346.734,290.310 348.329 L 291.070 349.580 291.670 349.269 C 293.320 348.416,293.844 348.983,298.045 356.173 C 302.043 363.013,302.131 363.284,300.762 364.557 L 300.230 365.052 300.851 366.120 C 301.193 366.707,301.557 367.328,301.659 367.500 C 301.810 367.753,302.721 367.222,306.476 364.687 C 309.022 362.969,311.202 361.500,311.320 361.423 C 311.532 361.284,310.886 359.858,310.196 358.942 C 309.879 358.522,309.851 358.520,309.108 358.875 C 307.649 359.570,307.394 359.292,303.620 352.900 C 299.328 345.628,299.082 344.960,300.227 343.657 C 300.581 343.253,300.839 342.851,300.800 342.762 C 300.378 341.798,299.413 340.420,299.167 340.431 C 298.995 340.439,296.792 341.850,294.271 343.567 M106.042 345.769 C 97.511 347.195,92.846 358.475,97.704 365.931 C 101.302 371.454,107.429 373.058,113.006 369.937 C 114.769 368.950,114.801 368.840,113.772 367.325 C 112.776 365.858,112.865 365.901,112.047 366.484 C 109.404 368.366,105.401 368.382,103.328 366.519 C 101.022 364.445,100.704 361.745,102.298 357.764 C 106.411 347.493,115.240 347.698,115.299 358.067 L 115.313 360.405 116.660 360.713 C 117.401 360.882,118.025 361.002,118.048 360.979 C 118.301 360.726,119.801 351.617,119.625 351.407 C 118.967 350.624,117.921 350.320,117.462 350.779 L 117.025 351.216 116.143 350.019 C 113.821 346.865,109.745 345.150,106.042 345.769 M274.792 354.356 L 266.146 358.280 266.175 359.088 C 266.191 359.532,266.271 361.372,266.353 363.177 L 266.502 366.458 267.834 366.458 L 269.167 366.458 269.167 365.844 C 269.167 363.127,270.666 360.327,272.679 359.286 L 273.269 358.981 275.691 365.168 C 279.523 374.954,279.474 374.735,278.123 375.891 L 277.288 376.606 277.786 377.930 C 278.059 378.658,278.381 379.287,278.501 379.327 C 278.839 379.439,288.960 374.770,288.949 374.506 C 288.943 374.376,288.726 373.755,288.465 373.125 L 287.992 371.979 286.887 371.979 C 285.220 371.979,284.998 371.609,281.768 363.407 L 278.989 356.354 279.651 356.054 C 281.434 355.245,283.799 355.799,285.855 357.509 L 286.813 358.306 287.776 357.329 L 288.738 356.352 286.133 353.384 C 284.699 351.752,283.507 350.420,283.482 350.425 C 283.458 350.429,279.547 352.198,274.792 354.356 M126.932 356.952 C 117.361 359.394,114.557 373.524,122.407 379.759 C 131.358 386.869,142.924 381.129,142.912 369.583 C 142.904 361.654,134.509 355.018,126.932 356.952 M133.597 360.959 C 136.663 362.509,137.583 365.598,136.374 370.286 C 134.359 378.108,129.154 381.556,125.376 377.572 C 122.194 374.216,124.387 364.904,129.217 361.267 C 130.370 360.399,132.231 360.268,133.597 360.959 M253.958 362.736 C 252.755 363.196,251.704 363.636,251.623 363.715 C 251.542 363.793,251.239 367.982,250.950 373.023 C 250.234 385.491,250.214 385.619,248.735 387.098 L 247.937 387.896 248.419 389.313 C 248.993 391.000,248.430 391.026,253.760 389.064 C 258.759 387.224,258.205 387.655,257.671 386.012 L 257.229 384.651 255.958 384.669 C 254.297 384.693,253.959 384.150,253.959 381.453 L 253.958 379.678 257.240 378.481 C 261.184 377.042,260.557 377.008,261.954 378.737 C 263.871 381.109,263.921 381.902,262.193 382.526 C 261.789 382.673,261.458 382.896,261.458 383.022 C 261.458 383.264,262.297 385.833,262.376 385.833 C 262.401 385.833,264.845 384.943,267.807 383.854 C 270.769 382.766,273.218 381.875,273.249 381.875 C 273.280 381.875,273.075 381.191,272.794 380.355 C 272.283 378.835,272.282 378.835,271.585 378.916 C 270.042 379.096,269.851 378.898,262.399 369.375 C 259.216 365.307,256.507 361.961,256.379 361.939 C 256.251 361.918,255.161 362.276,253.958 362.736 M146.490 364.384 C 146.347 365.077,146.182 365.768,146.123 365.921 C 146.057 366.093,146.226 366.251,146.568 366.337 C 148.509 366.824,148.529 367.813,146.765 375.793 C 145.002 383.770,144.822 384.167,142.966 384.167 L 142.154 384.167 141.844 385.613 L 141.533 387.059 146.860 388.352 C 149.790 389.063,152.319 389.655,152.479 389.666 C 152.667 389.680,152.868 389.280,153.044 388.542 C 153.428 386.925,153.402 386.682,152.821 386.461 C 151.324 385.893,151.131 384.749,151.912 381.073 L 152.370 378.918 153.208 379.052 C 153.670 379.125,154.068 379.207,154.094 379.233 C 154.120 379.258,155.171 381.981,156.429 385.283 C 157.688 388.586,158.749 391.312,158.786 391.341 C 158.917 391.445,165.888 393.140,165.940 393.081 C 166.034 392.974,166.458 390.823,166.458 390.454 C 166.458 390.255,166.123 389.914,165.709 389.691 C 164.633 389.112,163.949 387.990,162.303 384.105 C 160.487 379.817,160.540 380.157,161.667 379.985 C 166.936 379.177,169.061 371.966,164.981 368.735 C 163.309 367.410,149.730 363.184,146.969 363.129 C 146.848 363.127,146.633 363.692,146.490 364.384 M232.500 368.466 C 232.214 368.522,229.167 369.083,225.729 369.712 C 218.099 371.111,218.573 370.996,218.662 371.423 C 218.702 371.614,218.839 372.310,218.965 372.969 L 219.196 374.167 220.083 374.167 C 221.848 374.167,222.026 374.664,223.465 383.651 C 224.609 390.797,224.593 391.148,223.100 391.807 L 222.251 392.181 222.387 393.226 C 222.599 394.851,222.727 395.209,223.096 395.205 C 224.407 395.191,234.062 393.161,234.059 392.900 C 234.056 392.737,233.977 392.018,233.882 391.302 L 233.709 390.000 232.838 390.000 C 231.207 390.000,230.745 389.233,230.105 385.461 C 229.728 383.245,229.740 383.201,230.736 383.085 C 231.460 383.000,231.559 383.087,235.300 387.072 C 237.404 389.313,239.359 391.364,239.646 391.631 L 240.167 392.117 243.676 391.459 C 247.828 390.680,247.388 390.974,247.086 389.180 C 246.840 387.721,246.832 387.708,246.179 387.704 C 244.844 387.694,243.727 386.923,240.693 383.916 L 237.730 380.978 238.813 380.193 C 242.914 377.222,242.283 370.268,237.776 368.774 C 236.943 368.497,233.400 368.291,232.500 368.466 M157.469 369.073 C 160.460 369.961,161.694 373.274,159.755 375.213 C 158.700 376.268,157.085 376.492,154.601 375.927 L 153.183 375.605 153.677 373.271 C 154.650 368.673,154.962 368.328,157.469 369.073 M256.613 375.258 C 255.460 375.691,254.484 376.011,254.442 375.970 C 254.401 375.929,254.431 374.292,254.508 372.333 L 254.648 368.771 256.678 371.621 L 258.709 374.471 256.613 375.258 M171.357 369.955 C 171.288 370.496,171.185 371.242,171.127 371.615 C 171.061 372.045,171.110 372.292,171.261 372.292 C 173.441 372.292,173.615 373.363,172.707 381.174 C 171.709 389.749,171.485 390.417,169.606 390.417 C 168.929 390.417,168.961 390.340,168.655 392.652 C 168.514 393.715,167.954 393.543,174.257 394.372 C 180.444 395.185,179.947 395.216,180.100 394.010 C 180.168 393.466,180.263 392.776,180.309 392.478 C 180.384 392.000,180.296 391.905,179.571 391.688 C 178.199 391.277,178.044 390.827,178.184 387.677 C 178.329 384.426,178.048 384.747,180.425 385.109 C 188.386 386.321,191.752 384.310,191.766 378.333 C 191.778 372.766,189.642 371.447,178.125 369.909 C 175.089 369.504,172.352 369.128,172.043 369.073 C 171.511 368.979,171.475 369.026,171.357 369.955 M202.117 371.257 C 190.464 374.309,190.669 393.150,202.388 396.141 C 212.308 398.674,220.251 390.613,218.049 380.248 C 216.543 373.157,209.670 369.278,202.117 371.257 M233.820 372.479 C 237.247 374.597,235.175 378.624,230.182 379.550 L 229.218 379.728 228.776 377.196 C 228.091 373.276,228.146 372.875,229.459 372.259 C 230.606 371.720,232.768 371.829,233.820 372.479 M183.438 374.145 C 187.920 376.220,186.102 381.776,180.963 381.709 C 178.801 381.681,178.841 381.745,179.149 378.810 C 179.689 373.664,180.498 372.784,183.438 374.145 M206.841 374.179 C 212.664 375.428,213.788 389.838,208.283 392.671 C 203.908 394.922,200.466 391.270,200.072 383.958 C 199.746 377.899,201.561 374.662,205.667 373.983 C 205.747 373.969,206.275 374.058,206.841 374.179 " stroke="none" fill="#04554c" fill-rule="evenodd"></path><path id="path2" d="M124.512 96.166 C 111.036 98.601,102.077 111.836,104.804 125.280 C 105.447 128.447,106.448 130.856,108.387 133.906 C 109.494 135.645,109.548 135.612,110.598 132.551 C 114.118 122.289,120.036 109.348,125.697 99.534 C 126.803 97.615,127.708 95.998,127.708 95.940 C 127.708 95.754,126.202 95.861,124.512 96.166 M147.469 105.483 C 144.080 110.189,139.135 118.066,135.934 123.854 C 132.340 130.353,125.780 144.391,126.159 144.770 C 126.405 145.015,132.000 144.889,133.438 144.606 C 149.692 141.401,158.359 124.176,151.112 109.479 C 149.315 105.835,148.142 104.548,147.469 105.483 " stroke="none" fill="#9cd5bb" fill-rule="evenodd"></path><path id="path3" d="M124.258 87.185 C 119.555 87.898,111.431 90.977,110.950 92.229 C 110.888 92.393,110.762 92.480,110.671 92.424 C 110.579 92.368,109.993 92.782,109.367 93.346 C 108.741 93.909,108.153 94.371,108.061 94.372 C 107.968 94.374,107.950 94.469,108.021 94.583 C 108.092 94.698,108.055 94.792,107.938 94.792 C 107.822 94.792,107.512 95.007,107.249 95.270 C 106.985 95.534,106.600 95.814,106.392 95.894 C 106.175 95.978,106.078 96.141,106.165 96.281 C 106.255 96.426,106.224 96.467,106.087 96.382 C 105.961 96.305,105.783 96.367,105.690 96.521 C 105.597 96.676,105.220 97.021,104.852 97.288 C 104.484 97.556,104.223 97.840,104.272 97.919 C 104.322 97.999,104.130 98.170,103.848 98.298 C 103.565 98.427,103.333 98.628,103.333 98.746 C 103.333 98.863,103.198 98.958,103.033 98.958 C 102.868 98.958,102.666 99.067,102.584 99.199 C 102.483 99.362,102.530 99.383,102.728 99.263 C 102.977 99.113,102.978 99.139,102.737 99.437 C 102.581 99.629,102.380 99.742,102.292 99.688 C 102.203 99.633,102.003 99.746,101.847 99.938 C 101.651 100.179,101.644 100.239,101.823 100.132 C 102.253 99.874,102.136 100.103,100.919 101.914 C 93.169 113.440,93.639 129.273,102.061 140.417 C 103.890 142.837,106.803 145.831,106.570 145.052 C 106.493 144.794,106.518 144.583,106.625 144.583 C 106.732 144.583,106.983 143.997,107.182 143.281 C 107.381 142.565,108.003 140.508,108.564 138.709 L 109.584 135.439 109.115 134.931 C 107.534 133.219,105.483 128.628,104.804 125.280 C 101.933 111.124,112.149 97.205,126.355 95.917 L 127.828 95.784 130.375 91.798 C 131.776 89.606,133.057 87.625,133.222 87.396 C 133.613 86.854,127.406 86.708,124.258 87.185 M153.421 97.682 C 153.501 97.811,153.468 97.917,153.348 97.917 C 153.121 97.917,153.023 98.040,149.872 102.253 L 147.973 104.793 148.622 105.488 C 149.523 106.453,151.105 109.189,151.876 111.116 C 158.390 127.384,146.790 144.643,129.167 144.904 L 125.938 144.951 125.340 146.486 C 123.864 150.275,122.991 152.908,123.133 153.138 C 123.743 154.125,131.590 154.102,136.216 153.099 C 140.974 152.068,148.087 148.716,148.868 147.137 C 148.996 146.880,149.162 146.731,149.237 146.807 C 149.313 146.883,149.375 146.789,149.375 146.599 C 149.375 144.618,155.508 129.025,159.427 121.042 C 160.692 118.464,161.756 116.215,161.790 116.045 C 161.824 115.876,161.943 115.706,162.055 115.669 C 162.317 115.582,162.183 114.499,161.638 112.292 C 160.470 107.566,158.085 102.851,154.945 99.063 C 154.016 97.941,153.029 97.047,153.421 97.682 " stroke="none" fill="#77c4a1" fill-rule="evenodd"></path><path id="path4" d="M182.392 68.263 C 176.347 73.138,168.267 80.661,164.347 85.064 L 162.899 86.690 164.288 88.189 C 166.274 90.331,168.714 93.648,170.244 96.281 C 170.969 97.530,171.656 98.691,171.771 98.861 C 171.936 99.106,172.278 98.758,173.438 97.160 C 179.353 89.006,183.147 84.251,189.335 77.234 C 190.525 75.884,191.452 74.659,191.395 74.510 C 191.221 74.057,188.087 70.211,186.389 68.367 C 185.510 67.411,184.843 66.544,184.907 66.440 C 185.133 66.074,184.868 66.266,182.392 68.263 M142.503 72.835 C 140.198 73.879,140.080 74.032,141.334 74.348 C 142.636 74.676,142.541 74.718,143.638 73.322 C 144.875 71.748,144.888 71.754,142.503 72.835 M190.585 76.785 C 189.009 78.849,188.738 79.219,185.917 83.162 C 181.782 88.942,176.897 96.751,174.689 101.112 L 173.672 103.119 174.546 105.882 C 180.754 125.503,173.816 146.830,157.355 158.720 C 155.104 160.346,155.294 159.985,154.813 163.542 C 153.874 170.492,152.903 191.762,153.460 193.212 C 153.647 193.701,153.897 193.645,157.105 192.395 C 203.098 174.463,220.872 119.266,193.916 78.083 C 192.888 76.512,192.107 75.129,192.182 75.010 C 192.256 74.890,192.269 74.792,192.212 74.792 C 192.155 74.792,191.423 75.689,190.585 76.785 M80.545 125.514 C 80.360 125.796,80.208 126.116,80.208 126.225 C 80.208 126.334,80.131 126.455,80.036 126.493 C 79.941 126.531,79.192 127.661,78.373 129.004 C 72.269 139.008,67.391 149.685,64.272 159.867 L 63.579 162.129 65.488 164.797 C 73.636 176.191,84.251 184.970,96.809 190.699 L 99.688 192.012 99.744 190.225 C 99.982 182.734,100.983 172.949,102.397 164.293 C 102.676 162.587,102.860 161.118,102.805 161.030 C 102.750 160.941,102.824 160.818,102.967 160.755 C 103.144 160.678,103.061 160.520,102.712 160.268 C 93.315 153.496,87.555 146.249,84.074 136.817 C 82.803 133.375,81.458 127.654,81.458 125.693 C 81.458 124.855,81.031 124.771,80.545 125.514 M143.958 165.653 C 138.501 167.854,128.046 168.609,120.845 167.323 L 118.746 166.948 118.548 167.693 C 116.692 174.676,114.869 184.536,113.952 192.553 C 113.483 196.661,113.469 196.895,113.726 196.491 C 113.873 196.257,114.229 196.266,115.858 196.541 C 123.390 197.815,131.248 197.989,138.854 197.051 C 141.272 196.752,141.176 196.869,141.342 194.005 C 141.843 185.305,142.699 177.217,143.861 170.208 C 144.385 167.045,144.614 165.408,144.529 165.430 C 144.502 165.437,144.245 165.538,143.958 165.653 " stroke="none" fill="#489c84" fill-rule="evenodd"></path></g></svg>